<svg width="120" height="16" viewBox="0 0 120 16" fill="none" xmlns="http://www.w3.org/2000/svg">
<g clip-path="url(#clip0_723_13164)">
<path d="M115.074 0.810547H103.801V15.2748H115.536C118.288 15.2748 119.998 13.6464 119.998 11.0247V5.24306C119.998 3.03581 118.475 0.810547 115.072 0.810547L115.074 0.810547ZM115.7 4.47053V11.8175H108.105V4.2453H115.7V4.47053Z" fill="white"/>
<path d="M90.9481 11.8219V11.5967V9.8061V9.58087H91.1733H101.378V6.42991H91.1733H90.9481V6.20468V4.51997V4.29474H91.1733L102.002 4.26771L102.005 0.814941H86.6484V15.2792H102.014V11.8219H91.1733H90.9481Z" fill="white"/>
<path d="M78.2402 7.75214L78.3934 7.59899L85.1818 0.81958H79.7357L74.605 6.34446L74.5374 6.41653H74.4383H73.3955H73.1703V6.1913V0.81958H68.8684V15.2838H73.1703V9.80173V9.5765H73.3955H74.5667H74.6681L74.7356 9.65083L79.7785 15.2838H85.2493L78.3889 7.91206L78.2402 7.75214Z" fill="white"/>
<path d="M13.9052 7.2384L4.83291 5.78116L4.64372 5.74963V4.03338H4.86895L12.0267 4.03113H12.252V4.25636V5.4253H16.5809V3.97708C16.5786 1.23829 14.5493 0.828369 13.3398 0.828369H4.08966C1.87115 0.828369 0.549048 1.97479 0.549048 3.89599V6.23162C0.549048 7.60102 1.50853 8.53572 3.18423 8.79248L12.0515 10.1957L12.2407 10.2249V10.4164L12.2497 11.8579V12.0853H12.0245L4.86895 12.0898H4.64372V11.8646V10.6213H0.540039V12.0133C0.540039 12.9998 0.877883 15.2971 4.01083 15.2971H13.0786C15.475 15.2971 16.5899 14.3151 16.5899 12.2047V10.0898C16.5899 8.31725 15.2025 7.45687 13.9029 7.24065L13.9052 7.2384Z" fill="white"/>
<path d="M18.178 4.49296H23.8425H24.0677V4.71819V15.2905H28.3719V4.71819V4.49296H28.5971H34.2661V0.823975H18.178V4.49296Z" fill="white"/>
<path d="M62.9112 4.27001V6.52456H67.0825V4.20694C67.0825 2.12582 65.6748 0.833008 63.4067 0.833008H54.8998C52.2353 0.833008 50.9966 2.05826 50.9966 4.68668V11.2544C50.9966 14.09 52.1678 15.2995 54.9133 15.2995H63.409C66.6658 15.2995 67.0847 13.5179 67.0847 11.9638V9.52461H62.9135V11.6485V11.8738H62.6882L55.5395 11.8783H55.3142V11.653V4.49974V4.27451H62.9157L62.9112 4.27001Z" fill="white"/>
<path d="M50.5464 15.2863L44.2693 0.822021H37.9246L31.5889 15.2863H35.8119L36.8863 12.8921H45.017L46.1319 15.2863H50.5464ZM41.5845 4.48876L43.8031 9.75012H38.1205L40.339 4.48876H41.5823H41.5845Z" fill="white"/>
</g>
<defs>
<clipPath id="clip0_723_13164">
<rect width="120" height="14.4868" fill="white" transform="translate(0 0.810547)"/>
</clipPath>
</defs>
</svg>
